<?xml version="1.0" encoding="utf-8"?>
<!-- Generator: Adobe Illustrator 23.1.0, SVG Export Plug-In . SVG Version: 6.00 Build 0)  -->
<svg version="1.1" id="Layer_1" xmlns="http://www.w3.org/2000/svg" xmlns:xlink="http://www.w3.org/1999/xlink" x="0px" y="0px"
	 viewBox="0 0 1254 704" style="enable-background:new 0 0 1254 704;" xml:space="preserve">
<style type="text/css">
	.st0{fill:#FFFFFF;}
</style>
<image style="display:none;overflow:visible;enable-background:new    ;" width="237" height="50" xlink:href="perfect-dark-brk.regular.png"  transform="matrix(1 0 0 1 508.5 327)">
</image>
<g>
	<polygon class="st0" points="329.6,205 340.3,216 573,215.8 577.1,219.9 557.3,239.9 572.3,239.9 592.6,220 577.7,205 	"/>
	<polygon class="st0" points="551.8,245.1 541.9,255 604.7,255 595.4,245.2 	"/>
	<path class="st0" d="M573.4,216"/>
</g>
<g>
	<polygon class="st0" points="595.2,207.2 595.2,239.9 609.9,254.6 645.1,254.6 635.4,245 614.7,245.1 607.6,238.1 607.6,219.7 	"/>
	<polygon class="st0" points="648.1,252.5 648.1,219.7 633.4,205 598.2,205 607.8,214.6 628.6,214.6 635.6,221.6 635.6,240 	"/>
</g>
<g>
	<polygon class="st0" points="638.2,205 649.3,215.8 681.6,215.8 685.7,219.9 665.9,239.9 681,239.9 701.2,220 686.3,205 	"/>
	<polygon class="st0" points="660.4,245.1 650.6,255 713.3,255 704.1,245.2 	"/>
</g>
<g>
	<polygon class="st0" points="691.6,205 702.6,215.8 734.9,215.8 739,219.9 719.2,239.9 734.3,239.9 754.5,220 739.6,205 	"/>
	<polygon class="st0" points="713.7,245.1 703.9,255 866.6,255 857.4,245.2 	"/>
</g>
<g>
	<polygon class="st0" points="574.8,219 343.1,219 340.9,216.8 572.5,216.8 	"/>
</g>
<path class="st0" d="M567.3,228.7"/>
<path class="st0" d="M577.7,205"/>
</svg>
